HIERARCHY
ROOT Hips
{
	OFFSET -0.001795 -0.223333 0.028219
	CHANNELS 6 Xposition Yposition Zposition Zrotation Yrotation Xrotation 
	JOINT LeftUpLeg
	{
		OFFSET 0.069520 -0.091406 -0.006815
		CHANNELS 3 Zrotation Yrotation Xrotation
		JOINT LeftLeg
		{
			OFFSET 0.034277 -0.375199 -0.004496
			CHANNELS 3 Zrotation Yrotation Xrotation
			JOINT LeftFoot
			{
				OFFSET -0.013596 -0.397961 -0.043693
				CHANNELS 3 Zrotation Yrotation Xrotation
				JOINT LeftToe
				{
					OFFSET 0.026358 -0.055791 0.119288
					CHANNELS 3 Zrotation Yrotation Xrotation
					End Site
					{
						OFFSET 0.000000 0.000000 0.000000
					}
				}
			}
		}
	}
	JOINT RightUpLeg
	{
		OFFSET -0.067670 -0.090522 -0.004320
		CHANNELS 3 Zrotation Yrotation Xrotation
		JOINT RightLeg
		{
			OFFSET -0.038290 -0.382569 -0.008850
			CHANNELS 3 Zrotation Yrotation Xrotation
			JOINT RightFoot
			{
				OFFSET 0.015774 -0.398415 -0.042312
				CHANNELS 3 Zrotation Yrotation Xrotation
				JOINT RightToe
				{
					OFFSET -0.025372 -0.048144 0.123348
					CHANNELS 3 Zrotation Yrotation Xrotation
					End Site
					{
						OFFSET 0.000000 0.000000 0.000000
					}
				}
			}
		}
	}
	JOINT Spine
	{
		OFFSET -0.002533 0.108963 -0.026696
		CHANNELS 3 Zrotation Yrotation Xrotation
		JOINT Spine1
		{
			OFFSET 0.005487 0.135180 0.001092
			CHANNELS 3 Zrotation Yrotation Xrotation
			JOINT Spine2
			{
				OFFSET 0.001457 0.052922 0.025425
				CHANNELS 3 Zrotation Yrotation Xrotation
				JOINT Neck
				{
					OFFSET -0.002778 0.213870 -0.042857
					CHANNELS 3 Zrotation Yrotation Xrotation
					JOINT Head
					{
						OFFSET 0.005152 0.064970 0.051349
						CHANNELS 3 Zrotation Yrotation Xrotation
						End Site
						{
							OFFSET 0.000000 0.000000 0.000000
						}
					}
				}
				JOINT LeftShoulder
				{
					OFFSET 0.078845 0.121749 -0.034090
					CHANNELS 3 Zrotation Yrotation Xrotation
					JOINT LeftArm
					{
						OFFSET 0.090977 0.030469 -0.008868
						CHANNELS 3 Zrotation Yrotation Xrotation
						JOINT LeftForeArm
						{
							OFFSET 0.259612 -0.012772 -0.027456
							CHANNELS 3 Zrotation Yrotation Xrotation
							JOINT LeftHand
							{
								OFFSET 0.249234 0.008986 -0.001171
								CHANNELS 3 Zrotation Yrotation Xrotation
								End Site
								{
									OFFSET 0.000000 0.000000 0.000000
								}
							}
						}
					}
				}
				JOINT RightShoulder
				{
					OFFSET -0.081759 0.118833 -0.038615
					CHANNELS 3 Zrotation Yrotation Xrotation
					JOINT RightArm
					{
						OFFSET -0.096012 0.032551 -0.009143
						CHANNELS 3 Zrotation Yrotation Xrotation
						JOINT RightForeArm
						{
							OFFSET -0.253742 -0.013329 -0.021401
							CHANNELS 3 Zrotation Yrotation Xrotation
							JOINT RightHand
							{
								OFFSET -0.255298 0.007772 -0.005559
								CHANNELS 3 Zrotation Yrotation Xrotation
								End Site
								{
									OFFSET 0.000000 0.000000 0.000000
								}
							}
						}
					}
				}
			}
		}
	}
}
MOTION
Frames: 12
Frame Time: 0.050000
0.000000 0.943065 0.000000 -1.484528 -3.172302 2.844326 6.206110 -0.113828 -1.138313 0.765978 0.066506 -3.786954 2.673960 7.480493 6.793565 0.000000 0.000000 0.000000 -2.167330 0.311692 -2.931790 -1.356505 0.003937 -2.534941 0.326596 -3.892679 9.613244 0.000000 0.000000 0.000000 5.403706 0.023738 -1.251725 -2.657505 1.269854 0.084917 -3.490693 4.499585 -1.614893 7.653551 -4.285376 -8.593110 0.000000 0.000000 0.000000 -23.321404 -4.522093 -1.106137 -47.634106 -5.050915 -2.805892 -12.964070 -19.722272 2.779832 0.000000 0.000000 0.000000 23.485531 -2.560800 -2.855860 54.404991 4.992073 -2.652179 11.439450 23.150191 3.014498 0.000000 0.000000 0.000000 
-0.000192 0.942243 0.001021 -1.834396 -4.028832 3.424263 6.652526 -0.092177 -0.644106 0.566455 0.143155 -5.282634 3.041392 8.146335 7.064799 0.000000 0.000000 0.000000 -1.986457 0.373638 -3.652041 -1.067503 -0.016276 -2.450795 0.661860 -3.251931 9.447258 0.000000 0.000000 0.000000 6.128973 0.072612 -1.865254 -3.299253 1.579256 0.213525 -3.792115 5.139859 -2.175683 8.441557 -4.693473 -9.072441 0.000000 0.000000 0.000000 -24.549097 -4.289654 -1.507124 -46.427773 -5.110668 -2.594609 -12.986228 -18.833031 2.645849 0.000000 0.000000 0.000000 23.569318 -3.348506 -3.268410 55.512294 3.884295 -3.152075 11.387068 22.754358 2.953498 0.000000 0.000000 0.000000 
-0.000399 0.941785 0.001782 -1.498290 -3.507361 3.280181 6.331079 -0.098474 -0.691883 0.568731 0.134716 -5.076144 2.816880 7.729936 6.858349 0.000000 0.000000 0.000000 -2.052830 0.366400 -3.580361 -1.544017 0.040346 -2.093490 0.328616 -3.703271 9.056079 0.000000 0.000000 0.000000 5.736017 0.069050 -1.820085 -2.454759 1.160486 -0.908504 -4.644202 5.172671 -1.701563 8.154815 -4.712659 -7.963518 0.000000 0.000000 0.000000 -23.939488 -4.531607 -1.423645 -46.693630 -4.171097 -2.981699 -12.692851 -18.000120 2.470987 0.000000 0.000000 0.000000 24.744747 -2.914663 -2.948296 54.170375 3.074927 -3.568502 11.017381 22.890511 2.930942 0.000000 0.000000 0.000000 
-0.000604 0.941294 0.002444 -1.712413 -3.523517 3.691977 6.823358 -0.114858 -0.951771 0.136418 0.173305 -5.296252 2.858505 7.783585 6.774011 0.000000 0.000000 0.000000 -1.902053 0.430077 -4.329173 -1.380649 0.059635 -1.457049 0.254345 -3.755321 8.812845 0.000000 0.000000 0.000000 5.874790 0.090056 -2.123371 -2.572398 1.219400 -0.496644 -4.188735 4.755866 -2.696511 8.096998 -4.864258 -6.958788 0.000000 0.000000 0.000000 -24.316984 -3.618711 -1.880631 -46.655495 -4.480313 -2.808753 -12.567086 -16.921770 2.310236 0.000000 0.000000 0.000000 23.770247 -3.264514 -3.263311 54.429934 2.398884 -3.710092 11.609129 22.362640 2.925643 0.000000 0.000000 0.000000 
-0.000873 0.941429 0.002931 -1.598934 -3.311428 3.556072 6.545206 -0.120899 -1.102440 0.464180 0.131170 -4.803073 2.787789 7.640445 6.648135 0.000000 0.000000 0.000000 -1.976891 0.423070 -4.256736 -1.416314 0.076065 -1.212950 0.136802 -3.932121 8.716164 0.000000 0.000000 0.000000 5.804583 0.101998 -2.229888 -2.423268 1.151878 -0.313033 -4.291442 4.710476 -2.683417 7.767361 -4.725570 -6.482249 0.000000 0.000000 0.000000 -24.186950 -3.700452 -1.847691 -46.618237 -4.261657 -2.884430 -12.824757 -16.473426 2.281868 0.000000 0.000000 0.000000 23.880223 -3.540504 -3.407167 54.122887 1.946127 -3.902980 12.017954 22.242696 2.989310 0.000000 0.000000 0.000000 
-0.001069 0.941677 0.003320 -1.644686 -3.193519 3.680813 6.650025 -0.123182 -1.051825 0.402622 0.148641 -5.131043 2.707249 7.537592 6.804527 0.000000 0.000000 0.000000 -2.056950 0.437179 -4.421050 -1.149189 0.059097 -1.083842 0.091315 -4.034732 8.775535 0.000000 0.000000 0.000000 5.693054 0.111171 -2.362473 -2.227642 1.059499 -0.258583 -4.216516 4.561098 -2.833880 7.602190 -4.676104 -6.137383 0.000000 0.000000 0.000000 -24.511304 -3.385950 -2.047961 -46.456384 -4.040744 -2.943787 -12.627058 -16.125184 2.208090 0.000000 0.000000 0.000000 23.727194 -3.512589 -3.410342 54.113635 1.714973 -3.976462 11.890033 21.592663 2.859248 0.000000 0.000000 0.000000 
-0.001179 0.941818 0.003530 -1.538248 -3.147491 3.605335 6.498196 -0.122287 -1.042907 0.479419 0.138391 -5.007297 2.679814 7.493675 6.814960 0.000000 0.000000 0.000000 -2.059872 0.429308 -4.332253 -1.335707 0.076926 -1.065879 0.065729 -4.075319 8.757843 0.000000 0.000000 0.000000 5.587450 0.107196 -2.312169 -2.286394 1.089074 -0.076363 -4.159009 4.206216 -2.836996 7.542954 -4.599164 -6.370488 0.000000 0.000000 0.000000 -24.491698 -3.014875 -2.149993 -46.600663 -3.870115 -3.052829 -12.211281 -15.981952 2.140512 0.000000 0.000000 0.000000 23.444721 -3.388996 -3.409458 54.257333 1.363846 -4.112718 11.859041 21.677681 2.850494 0.000000 0.000000 0.000000 
-0.001224 0.941930 0.003646 -1.488888 -2.912591 3.641090 6.358352 -0.130762 -1.167583 0.666962 0.122707 -4.940152 2.576692 7.324939 6.822822 0.000000 0.000000 0.000000 -2.143016 0.431888 -4.367350 -1.254449 0.073441 -1.001460 -0.040639 -4.271203 8.772405 0.000000 0.000000 0.000000 5.359687 0.081820 -2.060215 -2.175517 1.034923 -0.212391 -4.131517 4.123996 -2.883244 7.360311 -4.569884 -5.843146 0.000000 0.000000 0.000000 -24.435598 -2.984817 -2.170030 -46.542117 -3.666982 -3.118751 -12.095184 -16.148287 2.146733 0.000000 0.000000 0.000000 23.369370 -3.645243 -3.547704 54.129268 1.265143 -4.137421 11.932490 21.531732 2.842294 0.000000 0.000000 0.000000 
-0.001241 0.941898 0.003740 -1.460110 -2.875737 3.592139 6.226260 -0.131989 -1.208757 0.851529 0.102805 -4.777652 2.574224 7.308797 6.763353 0.000000 0.000000 0.000000 -2.180846 0.432055 -4.373549 -1.237102 0.078455 -0.873916 -0.070764 -4.305338 8.713549 0.000000 0.000000 0.000000 5.314422 0.057025 -1.779418 -2.177436 1.034737 -0.353695 -4.008869 3.907898 -2.789200 7.245424 -4.487008 -5.905967 0.000000 0.000000 0.000000 -24.301221 -2.697129 -2.235722 -46.709221 -3.822267 -3.110571 -11.913604 -16.129745 2.126468 0.000000 0.000000 0.000000 23.177903 -3.600911 -3.568188 53.966976 1.273290 -4.113189 11.751229 21.632153 2.814802 0.000000 0.000000 0.000000 
-0.001273 0.941843 0.003863 -1.413852 -2.888219 3.597308 6.100450 -0.136800 -1.336901 0.985772 0.082935 -4.545091 2.600717 7.338831 6.692593 0.000000 0.000000 0.000000 -2.288924 0.433871 -4.395669 -1.133288 0.070726 -0.836567 -0.075099 -4.298240 8.670633 0.000000 0.000000 0.000000 5.255294 0.039559 -1.584533 -2.197829 1.043603 -0.452326 -3.922793 3.904821 -2.674379 7.097310 -4.391168 -5.883930 0.000000 0.000000 0.000000 -24.143468 -2.661806 -2.217091 -46.835221 -3.751153 -3.164908 -12.028837 -16.335673 2.171396 0.000000 0.000000 0.000000 23.019596 -3.752694 -3.647548 53.994157 1.237006 -4.135837 11.616599 21.856135 2.824513 0.000000 0.000000 0.000000 
-0.001329 0.941837 0.003971 -1.343694 -2.901013 3.696271 6.017751 -0.141039 -1.411495 0.998922 0.084252 -4.595973 2.603629 7.353376 6.737152 0.000000 0.000000 0.000000 -2.395092 0.449724 -4.587347 -1.078732 0.073202 -0.683343 -0.091595 -4.311928 8.616062 0.000000 0.000000 0.000000 5.232152 0.019552 -1.378463 -2.203265 1.045346 -0.526690 -3.925183 3.887793 -2.635012 7.127025 -4.391396 -6.000816 0.000000 0.000000 0.000000 -24.175955 -2.636300 -2.225667 -46.654318 -3.766540 -3.148296 -12.228484 -16.843703 2.269722 0.000000 0.000000 0.000000 22.944607 -3.849494 -3.703093 53.940262 1.375720 -4.069554 11.551579 21.996609 2.833406 0.000000 0.000000 0.000000 
-0.001376 0.941750 0.004055 -1.340452 -2.768661 3.827442 6.022251 -0.151574 -1.584071 1.008954 0.083288 -4.584962 2.556108 7.269638 6.714394 0.000000 0.000000 0.000000 -2.392795 0.458691 -4.695264 -1.072988 0.071989 -0.702365 -0.157486 -4.431901 8.614756 0.000000 0.000000 0.000000 5.142742 0.001828 -1.202193 -2.176837 1.032446 -0.544372 -3.804225 3.811311 -2.772420 6.917058 -4.212875 -6.143954 0.000000 0.000000 0.000000 -24.003949 -2.494608 -2.277622 -46.738998 -3.703613 -3.171470 -12.453496 -17.395754 2.377772 0.000000 0.000000 0.000000 22.605832 -4.045263 -3.794269 54.197774 1.208709 -4.134815 11.347412 22.312489 2.840373 0.000000 0.000000 0.000000 
